#define blender_plain_width 140
#define blender_plain_height 39
static unsigned char blender_plain_bits[] = {
   0x00, 0x00, 0x00, 0x00, 0x00, 0x00, 0x00, 0x00, 0x00, 0x00, 0x00, 0x00,
   0x00, 0x00, 0x00, 0x00, 0x00, 0x00, 0x00, 0x00, 0x00, 0x00, 0x00, 0x00,
   0x00, 0x00, 0x00, 0x00, 0x00, 0x00, 0x00, 0x00, 0x00, 0x00, 0x00, 0x00,
   0x00, 0x00, 0x00, 0x00, 0x00, 0x00, 0x00, 0x00, 0x00, 0x00, 0x00, 0x00,
   0x00, 0x00, 0x00, 0x00, 0x00, 0x00, 0x00, 0x00, 0x00, 0x00, 0x00, 0x00,
   0x00, 0x00, 0x00, 0x00, 0x00, 0x00, 0x00, 0x00, 0x00, 0x00, 0x00, 0x00,
   0x00, 0x00, 0x00, 0x00, 0x00, 0x00, 0x00, 0x00, 0x00, 0x00, 0x00, 0x00,
   0x00, 0x00, 0x00, 0x00, 0x00, 0x00, 0x00, 0x00, 0x00, 0x00, 0x00, 0x00,
   0x00, 0x00, 0x00, 0x00, 0x00, 0x00, 0x00, 0x00, 0x00, 0x00, 0x00, 0x00,
   0x00, 0x00, 0x00, 0x10, 0x00, 0x00, 0x00, 0x00, 0x00, 0x00, 0x00, 0x00,
   0x00, 0x00, 0x00, 0x00, 0x00, 0x00, 0x00, 0x00, 0x00, 0x50, 0x00, 0x00,
   0x00, 0x00, 0x00, 0x00, 0x00, 0x00, 0x00, 0x00, 0x00, 0x00, 0x00, 0x00,
   0x00, 0x00, 0x00, 0x80, 0x00, 0x00, 0x00, 0x00, 0x00, 0x00, 0x00, 0x00,
   0x00, 0x00, 0x00, 0x00, 0x00, 0x00, 0x00, 0x00, 0x00, 0x90, 0x02, 0x00,
   0x00, 0x00, 0x00, 0x00, 0x00, 0x00, 0x00, 0x00, 0x00, 0x00, 0x00, 0x00,
   0x00, 0x00, 0x00, 0x40, 0x04, 0x00, 0x00, 0x00, 0x00, 0x00, 0x00, 0x00,
   0x00, 0x00, 0x00, 0x00, 0x00, 0x00, 0x00, 0x00, 0x00, 0x81, 0x14, 0x00,
   0x00, 0x00, 0x00, 0x00, 0x00, 0x00, 0x00, 0x00, 0x00, 0x00, 0x00, 0x00,
   0x00, 0x00, 0x55, 0x2a, 0x49, 0x00, 0x00, 0x00, 0x00, 0x00, 0x00, 0x00,
   0x00, 0x00, 0x00, 0x00, 0x00, 0x00, 0x00, 0x40, 0x89, 0x48, 0x52, 0x00,
   0x00, 0x00, 0x00, 0x00, 0x00, 0x00, 0x00, 0x00, 0x00, 0x00, 0x00, 0x00,
   0x00, 0x00, 0x52, 0x92, 0x8a, 0x00, 0x06, 0x00, 0x00, 0x00, 0x00, 0x00,
   0x80, 0x01, 0x00, 0x00, 0x00, 0x00, 0x00, 0x00, 0x82, 0x24, 0xa8, 0x02,
   0x1e, 0x80, 0x03, 0x00, 0x00, 0x00, 0xc0, 0x01, 0x00, 0x00, 0x0b, 0x00,
   0x00, 0x00, 0x00, 0x09, 0x02, 0x02, 0x0e, 0x80, 0x03, 0x00, 0x00, 0x00,
   0xc0, 0x01, 0x00, 0x00, 0x08, 0x00, 0x00, 0x00, 0x50, 0x82, 0x9f, 0x0a,
   0x1e, 0x83, 0x83, 0x0f, 0xc0, 0x01, 0xca, 0xc1, 0x07, 0x70, 0x05, 0x00,
   0x00, 0x00, 0x40, 0xc5, 0x3f, 0x24, 0xfe, 0x8f, 0xe3, 0x3f, 0xf7, 0xc7,
   0xff, 0xf1, 0x9f, 0x7b, 0x00, 0x00, 0x00, 0x00, 0x54, 0xe0, 0x7f, 0x0a,
   0xfe, 0x9f, 0xfb, 0x3c, 0xff, 0xc7, 0xff, 0x79, 0xbd, 0x7f, 0x00, 0x00,
   0x00, 0x00, 0x48, 0xe1, 0x7f, 0x48, 0x3e, 0xbc, 0x7b, 0x70, 0x1f, 0xef,
   0xe1, 0x3d, 0xb8, 0x0f, 0x00, 0x00, 0x00, 0x80, 0x52, 0xf0, 0x7f, 0x0a,
   0x1e, 0xbc, 0xfb, 0x7f, 0x0f, 0xef, 0xc0, 0xfd, 0xbf, 0x07, 0x00, 0x00,
   0x00, 0x00, 0x95, 0xe2, 0x7f, 0x50, 0x1e, 0xb8, 0xfb, 0x7f, 0x07, 0xef,
   0xc0, 0xfd, 0xff, 0x07, 0x00, 0x00, 0x00, 0xa0, 0x52, 0xe0, 0x7f, 0x0a,
   0x1e, 0xbc, 0xfb, 0x7f, 0x07, 0xff, 0xc0, 0x7d, 0xbf, 0x03, 0x00, 0x00,
   0x00, 0x40, 0x82, 0xc2, 0x3f, 0x50, 0x1e, 0xbc, 0x7b, 0x00, 0x07, 0xee,
   0xe1, 0x3d, 0x80, 0x07, 0x00, 0x00, 0x00, 0x94, 0x50, 0x80, 0x1f, 0x0a,
   0x3e, 0xbe, 0xfb, 0x38, 0x07, 0xef, 0xe5, 0x79, 0x9c, 0x03, 0x00, 0x00,
   0x00, 0xa8, 0x82, 0x02, 0x00, 0x54, 0xfe, 0x9f, 0xf3, 0x3f, 0x0f, 0xcf,
   0xff, 0xf9, 0x9f, 0x07, 0x00, 0x00, 0x00, 0x12, 0xa0, 0x04, 0x40, 0x05,
   0xfe, 0x8f, 0xc3, 0x1f, 0x07, 0x8e, 0xff, 0xe1, 0x8f, 0x03, 0x00, 0x00,
   0x00, 0x28, 0x00, 0x95, 0x80, 0x2a, 0x80, 0x02, 0x00, 0x01, 0x00, 0x00,
   0x02, 0x00, 0x01, 0x00, 0x00, 0x00, 0x00, 0x00, 0x40, 0x15, 0xa8, 0x02,
   0x00, 0x00, 0x00, 0x00, 0x00, 0x00, 0x00, 0x00, 0x00, 0x00, 0x00, 0x00,
   0x00, 0x00, 0x00, 0xaa, 0x92, 0x04, 0x00, 0x00, 0x00, 0x00, 0x00, 0x00,
   0x00, 0x00, 0x00, 0x00, 0x00, 0x00, 0x00, 0x00, 0x00, 0x52, 0x55, 0x01,
   0x00, 0x00, 0x00, 0x00, 0x00, 0x00, 0x00, 0x00, 0x00, 0x00, 0x00, 0x00,
   0x00, 0x00, 0x00, 0x94, 0x4a, 0x05, 0x00, 0x00, 0x00, 0x00, 0x00, 0x00,
   0x00, 0x00, 0x00, 0x00, 0x00, 0x00, 0x00, 0x00, 0x00, 0x24, 0x12, 0x00,
   0x00, 0x00, 0x00, 0x00, 0x00, 0x00, 0x00, 0x00, 0x00, 0x00, 0x00, 0x00,
   0x00, 0x00, 0x00, 0x40, 0x55, 0x00, 0x00, 0x00, 0x00, 0x00, 0x00, 0x00,
   0x00, 0x00, 0x00, 0x00, 0x00, 0x00, 0x00, 0x00, 0x00, 0x00, 0x00, 0x00,
   0x00, 0x00, 0x00, 0x00, 0x00, 0x00, 0x00, 0x00, 0x00, 0x00, 0x00, 0x00,
   0x00, 0x00, 0x00, 0x00, 0x00, 0x00, 0x00, 0x00, 0x00, 0x00, 0x00, 0x00,
   0x00, 0x00, 0x00, 0x00, 0x00, 0x00, 0x00, 0x00, 0x00, 0x00, 0x00, 0x00,
   0x00, 0x00, 0x00, 0x00, 0x00, 0x00, 0x00, 0x00, 0x00, 0x00, 0x00, 0x00,
   0x00, 0x00, 0x00, 0x00, 0x00, 0x00, 0x00, 0x00, 0x00, 0x00, 0x00, 0x00,
   0x00, 0x00, 0x00, 0x00, 0x00, 0x00 };
