#define gedit_2_width 128
#define gedit_2_height 90
static unsigned char gedit_2_bits[] = {
   0x00, 0x00, 0x00, 0x00, 0x00, 0x00, 0x00, 0x00, 0x00, 0x00, 0x00, 0x00,
   0x00, 0x00, 0x00, 0x00, 0x00, 0x00, 0x00, 0x00, 0x00, 0x00, 0x00, 0x00,
   0x00, 0x00, 0x00, 0x00, 0x00, 0x00, 0x00, 0x00, 0x00, 0x00, 0x00, 0x00,
   0x00, 0x00, 0x00, 0x00, 0x00, 0x00, 0x00, 0x00, 0x00, 0x00, 0x00, 0x00,
   0x00, 0x00, 0x00, 0x00, 0x00, 0x00, 0x00, 0x00, 0x00, 0x00, 0x00, 0x00,
   0x00, 0x00, 0x00, 0x00, 0x00, 0x00, 0x00, 0x00, 0x00, 0x00, 0x00, 0x00,
   0x00, 0x00, 0x00, 0x00, 0x00, 0x00, 0x00, 0x00, 0x00, 0x00, 0x00, 0x00,
   0x00, 0x00, 0x00, 0x00, 0x00, 0x00, 0x00, 0x00, 0x00, 0x00, 0x00, 0x00,
   0x00, 0x00, 0x00, 0x00, 0x00, 0x00, 0x00, 0x00, 0x00, 0x00, 0x00, 0x00,
   0x00, 0x00, 0x00, 0x00, 0x00, 0x00, 0x00, 0x00, 0x00, 0x00, 0x00, 0x00,
   0x00, 0x00, 0x00, 0x00, 0x00, 0x00, 0x00, 0x00, 0x00, 0x00, 0x00, 0x00,
   0x00, 0x00, 0x00, 0x00, 0x00, 0x00, 0x00, 0x00, 0x00, 0x00, 0x00, 0x00,
   0x00, 0x00, 0x00, 0x00, 0x00, 0x00, 0x00, 0x00, 0x00, 0x00, 0x00, 0x00,
   0x00, 0x00, 0x00, 0x00, 0x00, 0x00, 0x00, 0x00, 0x00, 0x00, 0x00, 0x00,
   0x00, 0x00, 0x00, 0x00, 0x00, 0x00, 0x00, 0x00, 0x00, 0x00, 0x00, 0x00,
   0x00, 0x00, 0x00, 0x00, 0x00, 0x00, 0x00, 0x00, 0x00, 0x00, 0x00, 0x00,
   0xf0, 0xff, 0xff, 0xff, 0x0f, 0x00, 0x00, 0x00, 0x00, 0x00, 0x00, 0x00,
   0x00, 0x00, 0x00, 0x00, 0x70, 0xdb, 0xb6, 0x6d, 0x0b, 0x00, 0x00, 0x00,
   0x00, 0x00, 0x00, 0x00, 0x00, 0x00, 0x00, 0x00, 0x30, 0x49, 0x92, 0x24,
   0x09, 0x00, 0x00, 0x00, 0x00, 0x00, 0x00, 0x00, 0x00, 0x00, 0x00, 0x00,
   0xf0, 0xff, 0xff, 0xff, 0x0f, 0x00, 0x00, 0x00, 0x00, 0x00, 0x00, 0x00,
   0x00, 0x00, 0x00, 0x00, 0x10, 0xc7, 0x71, 0x9c, 0x09, 0x00, 0x00, 0x00,
   0x00, 0x00, 0x00, 0x00, 0x00, 0x00, 0x00, 0x00, 0xf0, 0xcc, 0xce, 0xde,
   0x08, 0x00, 0x00, 0x00, 0x00, 0x00, 0x00, 0x00, 0x00, 0x00, 0x00, 0x00,
   0xd0, 0x6e, 0xed, 0xb6, 0x09, 0x00, 0x00, 0x00, 0x00, 0x00, 0x00, 0x00,
   0x00, 0x00, 0x00, 0x00, 0xb0, 0x36, 0xeb, 0xed, 0x0e, 0x00, 0x00, 0x00,
   0x00, 0x00, 0x00, 0x00, 0x00, 0x00, 0x00, 0x00, 0xb0, 0xad, 0x5b, 0x9a,
   0x0f, 0x00, 0x00, 0x00, 0x00, 0x00, 0x00, 0x00, 0x00, 0x00, 0x00, 0x00,
   0x70, 0xf7, 0x77, 0x5e, 0x0d, 0x00, 0x00, 0x00, 0x00, 0x00, 0x00, 0x00,
   0x00, 0x00, 0x00, 0x00, 0xd0, 0x7b, 0xcf, 0xfd, 0x0e, 0x00, 0x00, 0x00,
   0x00, 0x00, 0x00, 0x00, 0x00, 0x00, 0x00, 0x00, 0x40, 0xbe, 0xdb, 0xee,
   0x0f, 0x00, 0x00, 0x00, 0x00, 0x00, 0x00, 0x00, 0x00, 0x00, 0x10, 0x00,
   0xf0, 0x75, 0xb6, 0xd9, 0x0f, 0x00, 0x00, 0x00, 0x00, 0x00, 0x00, 0xc0,
   0x83, 0x07, 0x78, 0x00, 0xb0, 0x54, 0xad, 0xd9, 0x09, 0x00, 0x00, 0x00,
   0x00, 0x00, 0x00, 0xc0, 0x03, 0x07, 0x78, 0x00, 0xd0, 0xef, 0xf4, 0xd5,
   0x0f, 0x00, 0x00, 0x00, 0x00, 0x00, 0x00, 0xc0, 0x83, 0x07, 0x78, 0x00,
   0x50, 0xab, 0x7b, 0xdd, 0x0e, 0x00, 0x00, 0x00, 0x00, 0x00, 0x00, 0x80,
   0x83, 0x07, 0x78, 0x00, 0xb0, 0x7b, 0xf6, 0xee, 0x0e, 0x00, 0x00, 0x00,
   0x00, 0x00, 0x00, 0x80, 0x83, 0x07, 0x78, 0x00, 0xf0, 0x77, 0xef, 0xf5,
   0x0d, 0x00, 0x00, 0x00, 0x00, 0x00, 0x00, 0x80, 0x03, 0x00, 0x78, 0x00,
   0x70, 0xf5, 0x7e, 0x77, 0x0f, 0x00, 0x00, 0x00, 0x00, 0x00, 0x00, 0x80,
   0x03, 0x00, 0x78, 0x00, 0x70, 0x3f, 0xb8, 0xf7, 0x0e, 0x00, 0x00, 0x00,
   0x00, 0x00, 0x00, 0x80, 0x03, 0x00, 0x78, 0x00, 0xd0, 0x6e, 0x00, 0x7c,
   0x0a, 0x00, 0xfe, 0x01, 0x00, 0x00, 0xfe, 0xc0, 0x03, 0x00, 0x70, 0x00,
   0xf0, 0x0d, 0x00, 0x70, 0x0c, 0xc0, 0xff, 0x07, 0x00, 0xc0, 0xff, 0xc3,
   0x03, 0xc7, 0xff, 0x0f, 0xc0, 0x04, 0x7e, 0x60, 0x0c, 0xe0, 0xff, 0x1f,
   0x00, 0xf0, 0xff, 0x8f, 0x03, 0xc7, 0xff, 0x0f, 0xb0, 0x83, 0xff, 0x41,
   0x0c, 0xf0, 0x80, 0x3f, 0x00, 0xf8, 0xc3, 0x9f, 0x83, 0xc7, 0xff, 0x0f,
   0xf0, 0xe1, 0xcc, 0x02, 0x0c, 0x38, 0x00, 0x7c, 0x00, 0x7c, 0x00, 0xbe,
   0x83, 0x07, 0x78, 0x00, 0xd0, 0xb0, 0x4f, 0x06, 0x0c, 0x1c, 0x00, 0xf8,
   0x00, 0x3e, 0x00, 0xfc, 0x83, 0x07, 0x78, 0x00, 0xf0, 0x70, 0xee, 0x0f,
   0x0c, 0x0e, 0x00, 0xf0, 0x00, 0x1f, 0x00, 0xf8, 0x83, 0x07, 0x78, 0x00,
   0xf0, 0xd8, 0xdb, 0x1f, 0x0c, 0x07, 0x00, 0xf0, 0x01, 0x0f, 0x00, 0xf0,
   0x83, 0x07, 0x78, 0x00, 0x50, 0x3c, 0xcd, 0x15, 0x0c, 0x07, 0x00, 0xe0,
   0x81, 0x07, 0x00, 0xe0, 0x83, 0x07, 0x78, 0x00, 0x30, 0x2c, 0xfb, 0x33,
   0x8c, 0x03, 0x00, 0xe0, 0x83, 0x07, 0x00, 0xe0, 0x83, 0x07, 0x78, 0x00,
   0x30, 0xf4, 0xbb, 0x3e, 0x8c, 0x03, 0x00, 0xc0, 0xc3, 0x03, 0x00, 0xe0,
   0x83, 0x07, 0x78, 0x00, 0x30, 0xfc, 0xb6, 0x7d, 0x8c, 0x03, 0x00, 0xc0,
   0xc3, 0x03, 0x00, 0xc0, 0x83, 0x07, 0x78, 0x00, 0x30, 0xb2, 0x6f, 0x63,
   0xcc, 0x6f, 0xdb, 0xf6, 0xc3, 0x03, 0x00, 0xc0, 0x83, 0x07, 0x78, 0x00,
   0x30, 0x7a, 0x9f, 0x66, 0xcc, 0xff, 0xff, 0xff, 0xc3, 0x01, 0x00, 0x80,
   0x83, 0x07, 0x78, 0x00, 0x30, 0x74, 0x9d, 0x6d, 0xcc, 0xff, 0xff, 0xff,
   0xc3, 0x01, 0x00, 0x80, 0x83, 0x07, 0x78, 0x00, 0x30, 0x5c, 0x9b, 0x4f,
   0xcc, 0x03, 0x00, 0x00, 0xc0, 0x03, 0x00, 0xc0, 0x83, 0x07, 0x78, 0x00,
   0x30, 0xb8, 0xdd, 0x39, 0xcc, 0x03, 0x00, 0x00, 0xe0, 0x03, 0x00, 0xc0,
   0x83, 0x07, 0x78, 0x00, 0x10, 0x5c, 0xef, 0x37, 0xcc, 0x03, 0x00, 0x00,
   0xc0, 0x03, 0x00, 0xc0, 0x83, 0x07, 0x78, 0x00, 0x70, 0xc8, 0x9e, 0x34,
   0x8c, 0x03, 0x00, 0x00, 0xc0, 0x03, 0x00, 0xc0, 0x83, 0x07, 0x78, 0x00,
   0x70, 0xa8, 0xe5, 0x1c, 0x8c, 0x07, 0x00, 0xc0, 0xc1, 0x07, 0x00, 0xc0,
   0x83, 0x07, 0x78, 0x00, 0xf0, 0x50, 0x67, 0x1d, 0x8c, 0x07, 0x00, 0xe0,
   0x81, 0x07, 0x00, 0xe0, 0x83, 0x07, 0x78, 0x00, 0xf0, 0xe0, 0xdc, 0x0d,
   0x0c, 0x0f, 0x00, 0xe0, 0x81, 0x0f, 0x00, 0xe0, 0x83, 0x07, 0x78, 0x00,
   0x70, 0xc1, 0xbc, 0x06, 0x0c, 0x1f, 0x00, 0xf0, 0x00, 0x1f, 0x00, 0xf0,
   0x83, 0x07, 0x78, 0x00, 0x30, 0x83, 0x6c, 0x03, 0x0c, 0x3e, 0x00, 0x78,
   0x00, 0x3e, 0x00, 0xf8, 0x83, 0x07, 0x78, 0x00, 0xf0, 0x07, 0x5e, 0x21,
   0x0c, 0xfc, 0x00, 0x7c, 0x00, 0x7e, 0x00, 0xfe, 0x83, 0x07, 0x78, 0x00,
   0x90, 0x0c, 0x00, 0x38, 0x0c, 0xf8, 0xe3, 0x3f, 0x00, 0xfc, 0x81, 0xdf,
   0x83, 0x07, 0x78, 0x00, 0x90, 0x37, 0x00, 0x0c, 0x0e, 0xf0, 0xff, 0x0f,
   0x00, 0xf0, 0xff, 0xcf, 0x83, 0x07, 0x78, 0x00, 0xd0, 0xfd, 0x80, 0x2f,
   0x0e, 0xc0, 0xff, 0x07, 0x00, 0xe0, 0xff, 0xc3, 0x83, 0x07, 0x78, 0x00,
   0xf0, 0xcf, 0x7a, 0x6e, 0x3e, 0x00, 0xfe, 0x00, 0x00, 0x00, 0xff, 0x00,
   0x00, 0x00, 0x00, 0x00, 0x90, 0xaf, 0xf7, 0x09, 0x0e, 0x00, 0x00, 0x00,
   0x00, 0x00, 0x00, 0x00, 0x00, 0x00, 0x00, 0x00, 0xd0, 0x71, 0x29, 0x1f,
   0x0f, 0x00, 0x00, 0x00, 0x00, 0x00, 0x00, 0x00, 0x00, 0x00, 0x00, 0x00,
   0xf0, 0x21, 0xf7, 0x0e, 0x0f, 0x00, 0x00, 0x00, 0x00, 0x00, 0x00, 0x00,
   0x00, 0x00, 0x00, 0x00, 0x10, 0xc1, 0x5c, 0x85, 0x0f, 0x00, 0x00, 0x00,
   0x00, 0x00, 0x00, 0x00, 0x00, 0x00, 0x00, 0x00, 0xf0, 0x03, 0xdb, 0xc1,
   0x0c, 0x00, 0x00, 0x00, 0x00, 0x00, 0x00, 0x00, 0x00, 0x00, 0x00, 0x00,
   0xd0, 0x07, 0x7c, 0xe0, 0x0f, 0x00, 0x00, 0x00, 0x00, 0x00, 0x00, 0x00,
   0x00, 0x00, 0x00, 0x00, 0xb0, 0x0f, 0x00, 0x70, 0x0f, 0x00, 0x00, 0x00,
   0x00, 0x00, 0x00, 0x00, 0x00, 0x00, 0x00, 0x00, 0x70, 0x37, 0x00, 0xfc,
   0x0d, 0x00, 0x00, 0x00, 0x00, 0x00, 0x00, 0x00, 0x00, 0x00, 0x00, 0x00,
   0xd0, 0xd2, 0x83, 0xdf, 0x0f, 0x00, 0x00, 0x00, 0x00, 0x00, 0x00, 0x00,
   0x00, 0x00, 0x00, 0x00, 0xf0, 0xcf, 0xde, 0xbf, 0x7a, 0x00, 0x00, 0x00,
   0x08, 0x00, 0x00, 0x00, 0x10, 0x10, 0x00, 0x00, 0x50, 0xee, 0xfd, 0x94,
   0x0f, 0x00, 0x00, 0x00, 0x00, 0x00, 0x00, 0x00, 0x00, 0x00, 0x00, 0x00,
   0x70, 0xef, 0x93, 0xfb, 0x09, 0x00, 0x00, 0x00, 0x00, 0x00, 0x00, 0x00,
   0x00, 0x00, 0x00, 0x00, 0x40, 0xdd, 0x7e, 0xee, 0x0f, 0x00, 0x00, 0x00,
   0x00, 0x00, 0x00, 0x00, 0x00, 0x00, 0x00, 0x00, 0xf0, 0xfe, 0xce, 0xed,
   0x0c, 0x00, 0x00, 0x00, 0x00, 0x00, 0x00, 0x00, 0x00, 0x00, 0x00, 0x00,
   0xb0, 0xfb, 0xd6, 0xfb, 0x1f, 0x00, 0x00, 0x00, 0x00, 0x00, 0x00, 0x00,
   0x00, 0x00, 0x00, 0x00, 0xe0, 0xf7, 0xbf, 0x56, 0x7f, 0x00, 0x00, 0x00,
   0x50, 0x55, 0x55, 0x55, 0x05, 0xa0, 0xaa, 0x02, 0x00, 0x00, 0x00, 0x00,
   0x00, 0x00, 0x00, 0x00, 0x00, 0x00, 0x00, 0x00, 0x00, 0x00, 0x00, 0x00,
   0x00, 0x00, 0x00, 0x00, 0x00, 0x00, 0x00, 0x00, 0x00, 0x00, 0x00, 0x00,
   0x00, 0x00, 0x00, 0x00, 0x00, 0x00, 0x00, 0x00, 0x00, 0x00, 0x00, 0x00,
   0x00, 0x00, 0x00, 0x00, 0x00, 0x00, 0x00, 0x00, 0x00, 0x00, 0x00, 0x00,
   0x00, 0x00, 0x00, 0x00, 0x00, 0x00, 0x00, 0x00, 0x00, 0x00, 0x00, 0x00,
   0x00, 0x00, 0x00, 0x00, 0x00, 0x00, 0x00, 0x00, 0x00, 0x00, 0x00, 0x00,
   0x00, 0x00, 0x00, 0x00, 0x00, 0x00, 0x00, 0x00, 0x00, 0x00, 0x00, 0x00,
   0x00, 0x00, 0x00, 0x00, 0x00, 0x00, 0x00, 0x00, 0x00, 0x00, 0x00, 0x00,
   0x00, 0x00, 0x00, 0x00, 0x00, 0x00, 0x00, 0x00, 0x00, 0x00, 0x00, 0x00,
   0x00, 0x00, 0x00, 0x00, 0x00, 0x00, 0x00, 0x00, 0x00, 0x00, 0x00, 0x00,
   0x00, 0x00, 0x00, 0x00, 0x00, 0x00, 0x00, 0x00, 0x00, 0x00, 0x00, 0x00,
   0x00, 0x00, 0x00, 0x00, 0x00, 0x00, 0x00, 0x00, 0x00, 0x00, 0x00, 0x00,
   0x00, 0x00, 0x00, 0x00, 0x00, 0x00, 0x00, 0x00, 0x00, 0x00, 0x00, 0x00,
   0x00, 0x00, 0x00, 0x00, 0x00, 0x00, 0x00, 0x00, 0x00, 0x00, 0x00, 0x00,
   0x00, 0x00, 0x00, 0x00, 0x00, 0x00, 0x00, 0x00, 0x00, 0x00, 0x00, 0x00,
   0x00, 0x00, 0x00, 0x00, 0x00, 0x00, 0x00, 0x00, 0x00, 0x00, 0x00, 0x00,
   0x00, 0x00, 0x00, 0x00, 0x00, 0x00, 0x00, 0x00, 0x00, 0x00, 0x00, 0x00 };
