#define gtkterm_width 32
#define gtkterm_height 32
static unsigned char gtkterm_bits[] = {
   0x00, 0x00, 0x00, 0x00, 0x00, 0x00, 0x00, 0x00, 0x00, 0x00, 0x00, 0x00,
   0xe0, 0xf3, 0x6f, 0x18, 0x78, 0x87, 0x61, 0x0c, 0x18, 0x84, 0x61, 0x06,
   0x0c, 0x80, 0x61, 0x03, 0x0c, 0x80, 0xe1, 0x01, 0x8c, 0x87, 0xe1, 0x01,
   0x0c, 0x86, 0x61, 0x03, 0x0c, 0x86, 0x61, 0x06, 0x18, 0x86, 0x61, 0x0c,
   0x78, 0x87, 0x61, 0x18, 0xe0, 0x85, 0x61, 0x30, 0x00, 0x00, 0x00, 0x00,
   0x00, 0x00, 0x00, 0x00, 0x00, 0x00, 0x00, 0x00, 0x00, 0x00, 0x00, 0x00,
   0x08, 0x00, 0x00, 0x00, 0x08, 0x00, 0x00, 0x00, 0x1c, 0x8f, 0xd6, 0x0c,
   0x88, 0x99, 0x31, 0x13, 0x88, 0x90, 0x10, 0x11, 0x88, 0x9f, 0x10, 0x11,
   0x88, 0x80, 0x10, 0x11, 0x88, 0x80, 0x10, 0x11, 0x88, 0x99, 0x10, 0x11,
   0x30, 0x8f, 0x10, 0x11, 0x00, 0x00, 0x00, 0x00, 0x00, 0x00, 0x00, 0x00,
   0x00, 0x00, 0x00, 0x00, 0x00, 0x00, 0x00, 0x00 };
