#define kate_width 64
#define kate_height 73
static unsigned char kate_bits[] = {
   0x00, 0xc0, 0x0f, 0x00, 0x00, 0xf0, 0x07, 0x80, 0x00, 0xf0, 0x3f, 0xc0,
   0x00, 0xf0, 0x07, 0xc0, 0x00, 0xfc, 0xfc, 0xc0, 0x03, 0x70, 0x07, 0xe0,
   0x00, 0x1e, 0xe0, 0xc1, 0x1f, 0x30, 0x06, 0xf8, 0x00, 0x0e, 0x80, 0xe3,
   0x7e, 0x30, 0x07, 0xfc, 0x00, 0x07, 0x00, 0x63, 0xf8, 0xf1, 0x07, 0xde,
   0x80, 0x03, 0x00, 0x67, 0xf0, 0xf1, 0x07, 0xfe, 0x80, 0x03, 0x07, 0x66,
   0x70, 0xc0, 0x01, 0xff, 0x80, 0xc1, 0x0f, 0xfe, 0x70, 0xc0, 0x01, 0xe3,
   0x80, 0xc1, 0x0f, 0xfe, 0x60, 0xc0, 0x81, 0xe3, 0x80, 0xc1, 0x1c, 0xfe,
   0xe1, 0xc0, 0x81, 0x61, 0x80, 0xc1, 0x1c, 0xfe, 0xc1, 0xc0, 0xc1, 0x71,
   0x80, 0xc1, 0x0f, 0x8e, 0xc3, 0xc1, 0xc1, 0x31, 0x80, 0x81, 0x07, 0x06,
   0x83, 0xc1, 0xc0, 0x38, 0x80, 0x03, 0x03, 0x87, 0xff, 0xff, 0xe0, 0x18,
   0x00, 0x07, 0x03, 0xe3, 0xff, 0x7f, 0x60, 0x18, 0x00, 0x07, 0x83, 0xf3,
   0xff, 0x1f, 0x70, 0x1c, 0x00, 0x1e, 0xc3, 0x31, 0x0c, 0x07, 0x30, 0x0c,
   0x00, 0x3c, 0xe3, 0x30, 0x0c, 0x06, 0x38, 0x0e, 0x00, 0x38, 0x63, 0x30,
   0x1c, 0x0e, 0x38, 0x06, 0x00, 0x38, 0x63, 0x30, 0x18, 0x0c, 0x18, 0x07,
   0x00, 0xfe, 0xff, 0xff, 0xff, 0xff, 0xff, 0x1f, 0x00, 0xff, 0xff, 0xff,
   0xff, 0xff, 0xff, 0x1f, 0x00, 0xff, 0xff, 0xff, 0xff, 0xff, 0xff, 0x1f,
   0x00, 0x03, 0x00, 0x00, 0x00, 0x00, 0x00, 0x18, 0x00, 0x03, 0x00, 0x00,
   0x00, 0x00, 0x00, 0x38, 0x00, 0x03, 0x00, 0x00, 0x00, 0x00, 0x00, 0x38,
   0x00, 0xc3, 0x80, 0x01, 0x00, 0x00, 0x00, 0x38, 0x00, 0xc3, 0x80, 0x01,
   0x00, 0x00, 0x00, 0x38, 0x00, 0xc3, 0xc1, 0x01, 0x00, 0x00, 0x00, 0x38,
   0x00, 0x83, 0xe3, 0x00, 0x00, 0x00, 0x00, 0x38, 0x00, 0x83, 0x7f, 0x00,
   0x00, 0x00, 0x00, 0x38, 0x80, 0x03, 0x3e, 0x00, 0x00, 0x00, 0x00, 0x38,
   0x80, 0x01, 0x00, 0x00, 0x00, 0x00, 0x00, 0x38, 0xc0, 0x01, 0x00, 0x00,
   0x00, 0x00, 0x00, 0x18, 0xc0, 0x00, 0x00, 0x00, 0x00, 0x00, 0x00, 0x18,
   0xe0, 0x00, 0x00, 0x00, 0x00, 0x00, 0x00, 0x18, 0x60, 0x00, 0x00, 0x00,
   0x00, 0x00, 0x00, 0x18, 0x70, 0x00, 0x00, 0x00, 0x00, 0x00, 0x00, 0x1c,
   0x38, 0x00, 0x00, 0x00, 0x00, 0x00, 0x00, 0x1c, 0x38, 0x00, 0x00, 0x00,
   0x00, 0x00, 0x00, 0x0c, 0x1c, 0x00, 0x00, 0x00, 0x00, 0x00, 0x00, 0x0e,
   0x0c, 0x00, 0x00, 0x00, 0x00, 0x00, 0x00, 0x0e, 0x0e, 0x00, 0x00, 0x00,
   0x00, 0x00, 0x00, 0x06, 0x3e, 0x00, 0x00, 0x00, 0x00, 0x00, 0x00, 0x07,
   0xfe, 0x03, 0x00, 0x00, 0x00, 0x00, 0x00, 0x03, 0xf0, 0x07, 0x00, 0x00,
   0x00, 0x00, 0x80, 0x03, 0x00, 0x07, 0x00, 0x00, 0x00, 0x00, 0xc0, 0x01,
   0x00, 0x06, 0x00, 0x00, 0x00, 0x00, 0xc0, 0x01, 0x00, 0x06, 0x00, 0x00,
   0x00, 0x00, 0xe0, 0x00, 0x00, 0x06, 0x00, 0x00, 0x00, 0x00, 0x70, 0x00,
   0x00, 0x06, 0x00, 0x00, 0x00, 0x00, 0x38, 0x00, 0x00, 0x06, 0x00, 0x00,
   0x00, 0x00, 0x1c, 0x00, 0x00, 0x06, 0x00, 0x00, 0x00, 0x00, 0x0e, 0x00,
   0x00, 0x06, 0x00, 0x00, 0x00, 0x00, 0x07, 0x00, 0x00, 0x06, 0x00, 0x00,
   0x00, 0x80, 0x03, 0x00, 0x00, 0x06, 0x00, 0x00, 0x00, 0xc0, 0x01, 0x00,
   0x00, 0x06, 0x00, 0x00, 0x00, 0xc0, 0x01, 0x00, 0x00, 0x06, 0x00, 0x00,
   0x00, 0xc0, 0x01, 0x00, 0x00, 0x06, 0x00, 0x00, 0x00, 0xc0, 0x01, 0x00,
   0x00, 0xfe, 0x7f, 0x00, 0x00, 0xc0, 0x01, 0x00, 0x00, 0xfe, 0x7f, 0x00,
   0x00, 0xc0, 0x01, 0x00, 0x00, 0x00, 0x70, 0x00, 0x00, 0xc0, 0x01, 0x00,
   0x00, 0x00, 0x60, 0x00, 0x00, 0xc0, 0x01, 0x00, 0x00, 0x00, 0x60, 0x00,
   0x00, 0xc0, 0x01, 0x00, 0x00, 0x00, 0x60, 0x00, 0x00, 0xc0, 0x01, 0x00,
   0x00, 0x00, 0x60, 0x00, 0x00, 0xc0, 0x01, 0x00, 0x00, 0x00, 0x60, 0x00,
   0x00, 0xc0, 0x01, 0x00, 0x00, 0x00, 0x60, 0x00, 0x00, 0xc0, 0x01, 0x00,
   0x00, 0x00, 0x60, 0x00, 0x00, 0xc0, 0x01, 0x00, 0x00, 0x00, 0xe0, 0x00,
   0x00, 0xc0, 0x01, 0x00, 0x00, 0x00, 0xe0, 0xff, 0xff, 0xff, 0x01, 0x00,
   0x00, 0x00, 0xe0, 0xff, 0xff, 0xff, 0x01, 0x00 };
