#define openscad_width 200
#define openscad_height 165
static unsigned char openscad_bits[] = {
   0x00, 0x00, 0x00, 0x00, 0x00, 0x00, 0x00, 0x00, 0x00, 0x00, 0x00, 0x00,
   0x00, 0x00, 0x00, 0x00, 0x00, 0x00, 0x00, 0x00, 0x00, 0x00, 0x00, 0x00,
   0x00, 0x00, 0x00, 0x00, 0x00, 0x00, 0x00, 0x00, 0x00, 0x00, 0x00, 0x00,
   0x00, 0x00, 0x00, 0x00, 0x00, 0x00, 0x00, 0x00, 0x00, 0x00, 0x00, 0x00,
   0x00, 0x00, 0x00, 0x00, 0x00, 0x00, 0x00, 0x00, 0x00, 0x00, 0x00, 0x00,
   0x00, 0x00, 0x00, 0x00, 0x00, 0x00, 0x00, 0x00, 0x00, 0x00, 0x00, 0x00,
   0x00, 0x00, 0x00, 0x00, 0x00, 0x00, 0x00, 0x00, 0x00, 0x00, 0x00, 0x00,
   0x00, 0x00, 0x00, 0x00, 0x00, 0x00, 0x00, 0x00, 0x00, 0x00, 0x00, 0x00,
   0x00, 0x00, 0x00, 0x00, 0x00, 0x00, 0x00, 0x00, 0x00, 0x00, 0x00, 0x00,
   0x00, 0x00, 0x00, 0x00, 0x00, 0x00, 0x00, 0x00, 0x00, 0x00, 0x00, 0x00,
   0x00, 0x00, 0x00, 0x00, 0x00, 0x00, 0x00, 0x00, 0x00, 0x00, 0x00, 0x00,
   0x00, 0x00, 0x00, 0x00, 0x00, 0x00, 0x00, 0x00, 0x00, 0x00, 0x00, 0x00,
   0x00, 0x00, 0x00, 0x00, 0x00, 0x00, 0x00, 0x00, 0x00, 0x00, 0x00, 0x00,
   0x00, 0x00, 0x00, 0x00, 0x00, 0xfe, 0xff, 0xff, 0x05, 0x00, 0x00, 0x00,
   0x00, 0x00, 0x00, 0x00, 0x00, 0x00, 0x00, 0x00, 0x00, 0x00, 0x00, 0x00,
   0x00, 0x00, 0x00, 0x00, 0x00, 0xe0, 0xff, 0xff, 0xbf, 0x5b, 0x00, 0x00,
   0x00, 0x00, 0x00, 0x00, 0x00, 0x00, 0x00, 0x00, 0x00, 0x00, 0x00, 0x00,
   0x00, 0x00, 0x00, 0x00, 0x00, 0x00, 0xfe, 0xff, 0xff, 0x6b, 0xad, 0x02,
   0x00, 0x00, 0x00, 0x00, 0x00, 0x00, 0x00, 0x00, 0x00, 0x00, 0x00, 0x00,
   0x00, 0x00, 0x00, 0x00, 0x00, 0x00, 0x80, 0xff, 0xff, 0xff, 0xff, 0x5b,
   0x15, 0x00, 0x00, 0x00, 0x00, 0x00, 0x00, 0x00, 0x00, 0x00, 0x00, 0x00,
   0x00, 0x00, 0x00, 0x00, 0x00, 0x00, 0x00, 0xe0, 0xff, 0xff, 0xff, 0xaf,
   0x56, 0x55, 0x00, 0x00, 0x00, 0x00, 0x00, 0x00, 0x00, 0x00, 0x00, 0x00,
   0x00, 0x00, 0x00, 0x00, 0x00, 0x00, 0x00, 0x00, 0xf8, 0xff, 0xff, 0xff,
   0xfd, 0x5a, 0x95, 0x02, 0x00, 0x00, 0x00, 0x00, 0x00, 0x00, 0x00, 0x00,
   0x00, 0x00, 0x00, 0x00, 0x00, 0x00, 0x00, 0x00, 0x00, 0xfe, 0xff, 0xff,
   0xff, 0xaf, 0xab, 0x52, 0x14, 0x00, 0x00, 0x00, 0x00, 0x00, 0x00, 0x00,
   0x00, 0x00, 0x00, 0x00, 0x00, 0x00, 0x00, 0x00, 0x00, 0x00, 0xf5, 0xff,
   0xff, 0xff, 0x7f, 0xad, 0x4a, 0x45, 0x00, 0x00, 0x00, 0x00, 0x00, 0x00,
   0x00, 0x00, 0x00, 0x00, 0x00, 0x00, 0x00, 0x00, 0x00, 0x00, 0x80, 0xdf,
   0xff, 0xff, 0xff, 0xb7, 0x5b, 0x95, 0x88, 0x02, 0x00, 0x00, 0x00, 0x00,
   0x00, 0x00, 0x00, 0x00, 0x00, 0x00, 0x00, 0x00, 0x00, 0x00, 0x00, 0xa0,
   0xfa, 0xff, 0xff, 0xff, 0xff, 0x56, 0x25, 0x29, 0x08, 0x00, 0x00, 0x00,
   0x00, 0x00, 0x00, 0x00, 0x00, 0x00, 0x00, 0x00, 0x00, 0x00, 0x00, 0x00,
   0x60, 0xff, 0xff, 0xff, 0xff, 0xab, 0xb5, 0x4a, 0x44, 0x15, 0x00, 0x00,
   0x00, 0x00, 0x00, 0x00, 0x00, 0x00, 0x00, 0x00, 0x00, 0x00, 0x00, 0x00,
   0x00, 0x50, 0xf5, 0xff, 0xff, 0xff, 0xbf, 0xad, 0x52, 0x09, 0x50, 0x00,
   0x00, 0x00, 0x00, 0x00, 0x00, 0x00, 0x00, 0x00, 0x00, 0x00, 0x00, 0x00,
   0x00, 0x00, 0x68, 0xff, 0xff, 0xff, 0xff, 0x7f, 0xab, 0x04, 0xa4, 0xaa,
   0x01, 0x00, 0x00, 0x00, 0x00, 0x00, 0x00, 0x00, 0x00, 0x00, 0x00, 0x00,
   0x00, 0x00, 0x00, 0x4a, 0xf5, 0xff, 0xff, 0xff, 0xed, 0x56, 0xad, 0x04,
   0x20, 0x05, 0x00, 0x00, 0x00, 0x00, 0x00, 0x00, 0x00, 0x00, 0x00, 0x00,
   0x00, 0x00, 0x00, 0x00, 0xb4, 0xff, 0xff, 0xff, 0xff, 0xbf, 0xad, 0x92,
   0x50, 0x55, 0x0b, 0x00, 0x00, 0x00, 0x00, 0x00, 0x00, 0x00, 0x00, 0x00,
   0x00, 0x00, 0x00, 0x00, 0x00, 0x54, 0xf5, 0xff, 0xff, 0xff, 0x77, 0xab,
   0x2a, 0x05, 0xa0, 0x1a, 0x00, 0x00, 0x00, 0x00, 0x00, 0x00, 0x00, 0x00,
   0x00, 0x00, 0x00, 0x00, 0x00, 0x00, 0x52, 0xff, 0xff, 0xff, 0xff, 0xdf,
   0x56, 0xa5, 0x50, 0x42, 0x6d, 0x00, 0x00, 0x00, 0x00, 0x00, 0x00, 0x00,
   0x00, 0x00, 0x00, 0x00, 0x00, 0x00, 0x00, 0x54, 0xf5, 0xff, 0xff, 0xff,
   0xfd, 0xb6, 0x0a, 0x05, 0x94, 0xea, 0x00, 0x00, 0x00, 0x00, 0x00, 0x00,
   0x00, 0x00, 0x00, 0x00, 0x00, 0x00, 0x00, 0x00, 0xd5, 0xfe, 0xff, 0xff,
   0xff, 0xd7, 0xad, 0x52, 0x50, 0xa0, 0xda, 0x01, 0x00, 0x00, 0x00, 0x00,
   0x00, 0x00, 0x00, 0x00, 0x00, 0x00, 0x00, 0x00, 0x00, 0xa8, 0xf5, 0xff,
   0xff, 0xff, 0xbf, 0x55, 0x95, 0x82, 0x44, 0x55, 0x03, 0x00, 0x00, 0x00,
   0x00, 0x00, 0x00, 0x00, 0x00, 0x00, 0x00, 0x00, 0x00, 0x00, 0x55, 0xdf,
   0xff, 0xff, 0xff, 0x6f, 0xab, 0x2a, 0x14, 0x90, 0xfa, 0x07, 0x00, 0x00,
   0x00, 0x00, 0x00, 0x00, 0x00, 0x00, 0x00, 0x00, 0x00, 0x00, 0x00, 0xaa,
   0xfa, 0xff, 0xff, 0xff, 0x7d, 0x5b, 0x49, 0x81, 0x22, 0xa5, 0x0e, 0x00,
   0x00, 0x00, 0x00, 0x00, 0x00, 0x00, 0x00, 0x00, 0x00, 0x00, 0x00, 0x00,
   0xd4, 0xfe, 0xff, 0xff, 0xff, 0xef, 0x56, 0x95, 0x14, 0x40, 0xd5, 0x1f,
   0x00, 0x00, 0x00, 0x00, 0x00, 0x00, 0x00, 0x00, 0x00, 0x00, 0x00, 0x00,
   0x00, 0xa9, 0xf5, 0xff, 0xff, 0xff, 0xdf, 0x55, 0x25, 0x41, 0x4a, 0x5a,
   0x7d, 0x00, 0x00, 0x00, 0x00, 0x00, 0x00, 0x00, 0x00, 0x00, 0x00, 0x00,
   0x00, 0x00, 0x54, 0xff, 0xff, 0xff, 0xff, 0x77, 0x57, 0x49, 0x14, 0x20,
   0xb5, 0x7f, 0x00, 0x00, 0x00, 0x00, 0x00, 0x00, 0x00, 0x00, 0x00, 0x00,
   0x00, 0x00, 0x00, 0x54, 0xf5, 0xff, 0xff, 0xff, 0x6f, 0x5d, 0x55, 0x41,
   0xa4, 0xaa, 0xfa, 0x00, 0x00, 0x00, 0x00, 0x00, 0x00, 0x00, 0x00, 0x00,
   0x00, 0x00, 0x00, 0x00, 0xa8, 0xff, 0xff, 0xff, 0xff, 0xbf, 0xab, 0x0a,
   0x0a, 0x01, 0xf5, 0xff, 0x01, 0x00, 0x00, 0x00, 0x00, 0x00, 0x00, 0x00,
   0x00, 0x00, 0x00, 0x00, 0x00, 0x50, 0xf5, 0xe0, 0xff, 0xff, 0xf7, 0xaa,
   0xa8, 0x20, 0x54, 0x8a, 0xfa, 0x03, 0x00, 0x00, 0x04, 0x00, 0x00, 0x00,
   0x00, 0x00, 0x00, 0x00, 0x00, 0x00, 0x50, 0x1f, 0xe0, 0xff, 0xff, 0x5d,
   0x03, 0x40, 0x8a, 0x40, 0x75, 0xff, 0x07, 0x00, 0x00, 0x0f, 0x00, 0x00,
   0x00, 0x00, 0x00, 0x00, 0x00, 0x00, 0x00, 0x50, 0x05, 0xe0, 0xff, 0xff,
   0x7f, 0x00, 0x08, 0x10, 0x14, 0xca, 0xfa, 0x0f, 0x00, 0x80, 0x1f, 0x00,
   0x00, 0x00, 0x00, 0x00, 0x00, 0x00, 0x00, 0x00, 0xc0, 0x00, 0xe0, 0xff,
   0xff, 0x17, 0x80, 0x00, 0x44, 0xa0, 0xaa, 0xff, 0x0f, 0x00, 0xf0, 0x1f,
   0x00, 0x00, 0x00, 0x00, 0x00, 0x00, 0x00, 0x00, 0x00, 0x80, 0x00, 0x40,
   0xff, 0xff, 0x07, 0x04, 0x09, 0x00, 0x49, 0x6a, 0xf5, 0x1f, 0x00, 0xfc,
   0x3f, 0x00, 0x00, 0x00, 0x00, 0x00, 0x00, 0x00, 0x00, 0x00, 0x00, 0x00,
   0x40, 0xff, 0xff, 0x00, 0x00, 0x00, 0x00, 0x90, 0xaa, 0xff, 0x3f, 0x00,
   0xff, 0x3f, 0x00, 0x00, 0x00, 0x00, 0x00, 0x00, 0x00, 0x00, 0x00, 0x00,
   0x00, 0x80, 0xfa, 0xff, 0x00, 0x20, 0x0a, 0x42, 0x42, 0xaa, 0xfa, 0x7f,
   0xc0, 0xff, 0x7f, 0x00, 0x00, 0x00, 0x00, 0x00, 0x00, 0x00, 0x00, 0x00,
   0x00, 0x00, 0x40, 0xf5, 0xbf, 0x00, 0x82, 0x10, 0x00, 0x94, 0xaa, 0xff,
   0x7f, 0xf0, 0xff, 0x7f, 0x00, 0x00, 0x00, 0x00, 0x00, 0x00, 0x00, 0x00,
   0x00, 0x00, 0x00, 0x00, 0xd5, 0x57, 0x00, 0x08, 0x05, 0x80, 0x50, 0x6a,
   0xf5, 0xff, 0xfc, 0xff, 0xff, 0x00, 0x00, 0x00, 0x00, 0x00, 0x00, 0x00,
   0x00, 0x00, 0x00, 0x00, 0x40, 0xaa, 0x4a, 0x90, 0x20, 0x00, 0x08, 0x82,
   0xaa, 0xff, 0xff, 0xff, 0xff, 0xff, 0x00, 0x00, 0x00, 0x00, 0x00, 0x00,
   0x00, 0x00, 0x00, 0x00, 0x00, 0x80, 0xa8, 0x90, 0x00, 0x24, 0x00, 0x40,
   0x28, 0x55, 0xf5, 0xff, 0xff, 0xff, 0xff, 0x01, 0x00, 0x00, 0x00, 0x00,
   0x00, 0x00, 0x00, 0x00, 0x00, 0x00, 0x00, 0x00, 0x4a, 0x24, 0x01, 0x00,
   0x10, 0xa5, 0xaa, 0xff, 0xff, 0xff, 0xff, 0xff, 0x01, 0x00, 0x00, 0x00,
   0x00, 0x00, 0x00, 0x00, 0x00, 0x00, 0x00, 0x00, 0x00, 0x00, 0x00, 0x00,
   0x00, 0x00, 0x44, 0x6a, 0xf5, 0xff, 0xff, 0xff, 0xff, 0x01, 0x00, 0x00,
   0x00, 0x00, 0x00, 0x00, 0x00, 0x00, 0x00, 0x00, 0x00, 0x00, 0x00, 0x00,
   0x00, 0x00, 0x48, 0xa8, 0xaa, 0xff, 0xff, 0xff, 0xff, 0xff, 0x03, 0x00,
   0x00, 0x00, 0x00, 0x00, 0x00, 0x00, 0x00, 0x00, 0x00, 0x00, 0x00, 0x00,
   0x00, 0x00, 0x80, 0x80, 0x02, 0x55, 0xf5, 0xff, 0xff, 0xff, 0xff, 0x03,
   0x00, 0x00, 0x00, 0x00, 0x00, 0x00, 0x00, 0x00, 0x00, 0x00, 0x00, 0x00,
   0x00, 0x00, 0x00, 0x00, 0x10, 0x54, 0xb5, 0xff, 0xff, 0xff, 0xff, 0xff,
   0x03, 0x00, 0x00, 0x00, 0x00, 0x00, 0x00, 0x00, 0x00, 0x00, 0x00, 0x00,
   0x00, 0x00, 0x00, 0x00, 0x00, 0x80, 0xa4, 0x6a, 0xf5, 0xff, 0xff, 0xff,
   0xff, 0x07, 0x00, 0x00, 0x00, 0x00, 0x00, 0x00, 0x00, 0x00, 0x00, 0x00,
   0x00, 0x00, 0x00, 0x00, 0x00, 0x00, 0x12, 0x48, 0xd5, 0xfe, 0xff, 0xff,
   0xff, 0xff, 0x07, 0x00, 0x00, 0x00, 0x00, 0x00, 0x00, 0x00, 0x00, 0x00,
   0x00, 0x00, 0x00, 0x00, 0x00, 0x00, 0x00, 0x80, 0x92, 0xaa, 0xf7, 0xff,
   0xff, 0xff, 0xff, 0x07, 0x00, 0x00, 0x00, 0x00, 0x00, 0x00, 0x00, 0x00,
   0x00, 0x00, 0x00, 0x00, 0x00, 0x00, 0x00, 0x00, 0x14, 0xa4, 0xda, 0xfe,
   0xff, 0xff, 0xff, 0xff, 0x07, 0x00, 0x00, 0x00, 0x00, 0x00, 0x00, 0x00,
   0x00, 0x00, 0x00, 0x00, 0x00, 0x00, 0x00, 0x00, 0x00, 0x40, 0x29, 0xd5,
   0xfa, 0xff, 0xff, 0xff, 0xff, 0x0f, 0x00, 0x00, 0x00, 0x00, 0x00, 0x00,
   0x00, 0x00, 0x00, 0x00, 0x00, 0x00, 0x00, 0x00, 0x00, 0x40, 0x08, 0xa2,
   0xda, 0xff, 0xff, 0xff, 0xff, 0xff, 0x0f, 0x00, 0x00, 0x00, 0x00, 0x00,
   0x00, 0x00, 0x00, 0x00, 0x00, 0x00, 0x00, 0x00, 0x00, 0x00, 0x00, 0xa1,
   0x54, 0xb5, 0xfa, 0xff, 0xff, 0xff, 0xff, 0x0f, 0x00, 0x00, 0x00, 0x00,
   0x00, 0x00, 0x00, 0x00, 0x00, 0x00, 0x00, 0x00, 0x00, 0x00, 0x00, 0x00,
   0x04, 0x49, 0xd5, 0xff, 0xff, 0xff, 0xff, 0xff, 0x0f, 0x00, 0x00, 0x00,
   0x00, 0x00, 0x00, 0x00, 0x00, 0x00, 0x00, 0x00, 0x00, 0x00, 0x00, 0x00,
   0x00, 0x28, 0x52, 0xb5, 0xfa, 0xff, 0xff, 0xff, 0xff, 0x0f, 0x00, 0x00,
   0x00, 0x00, 0x00, 0x00, 0x00, 0x00, 0x00, 0x00, 0x00, 0x00, 0x00, 0x00,
   0x00, 0x20, 0x40, 0x55, 0xdb, 0xff, 0xff, 0xdf, 0xff, 0xff, 0x0f, 0x00,
   0x00, 0x00, 0x00, 0x00, 0x00, 0x00, 0x00, 0x00, 0x00, 0x00, 0x00, 0x00,
   0x00, 0x00, 0x00, 0x09, 0x50, 0xd6, 0xfe, 0xff, 0xff, 0xff, 0xff, 0x0f,
   0x00, 0x00, 0x00, 0x00, 0x00, 0x00, 0x00, 0x00, 0x00, 0x00, 0x00, 0x00,
   0x00, 0x00, 0x00, 0x20, 0xa4, 0x56, 0xbd, 0xfb, 0xff, 0xdf, 0xff, 0xff,
   0x0f, 0x00, 0x00, 0x00, 0x00, 0x00, 0x00, 0x00, 0x00, 0x00, 0x00, 0x00,
   0x00, 0x00, 0x00, 0x00, 0x80, 0x80, 0xa4, 0x6a, 0xff, 0xff, 0xff, 0xff,
   0xff, 0x0f, 0x00, 0x00, 0x00, 0x00, 0x00, 0x00, 0x00, 0x00, 0x00, 0x00,
   0x00, 0x00, 0x00, 0x00, 0x00, 0x04, 0x2a, 0xa9, 0xbd, 0xff, 0xff, 0xdf,
   0xff, 0xff, 0x0f, 0x00, 0x00, 0x00, 0x00, 0x00, 0x00, 0x00, 0x00, 0x00,
   0x00, 0x00, 0x00, 0x00, 0x00, 0x00, 0x40, 0x40, 0xaa, 0xf2, 0xfe, 0xff,
   0xbf, 0xff, 0xff, 0x0f, 0x00, 0x00, 0x00, 0x00, 0x00, 0x00, 0x00, 0x00,
   0x00, 0x00, 0x00, 0x00, 0x00, 0x00, 0x00, 0x08, 0x95, 0xaa, 0xed, 0xff,
   0xff, 0x7f, 0xff, 0xff, 0x0f, 0x00, 0x00, 0x00, 0x00, 0x00, 0x00, 0x00,
   0x00, 0x00, 0x00, 0x00, 0x00, 0x00, 0x00, 0x00, 0x20, 0xa0, 0x54, 0x5d,
   0xff, 0xff, 0xef, 0xff, 0xff, 0x0f, 0x00, 0x00, 0x00, 0x00, 0x00, 0x00,
   0x00, 0x00, 0x00, 0x00, 0x00, 0x00, 0x00, 0x00, 0x00, 0x82, 0x8a, 0xaa,
   0xeb, 0xff, 0xff, 0xbf, 0xfe, 0xff, 0x0f, 0x00, 0x00, 0x00, 0x00, 0x00,
   0x00, 0x00, 0x00, 0x00, 0x00, 0x00, 0x00, 0x00, 0x00, 0x00, 0x10, 0xa8,
   0xaa, 0x7e, 0xff, 0xff, 0xff, 0xff, 0xff, 0x0f, 0x00, 0x00, 0x00, 0x00,
   0x00, 0x00, 0x00, 0x00, 0x00, 0x00, 0x00, 0x00, 0x00, 0x00, 0x00, 0x44,
   0x45, 0xaa, 0xea, 0xff, 0xff, 0xaf, 0xfe, 0xff, 0x07, 0x00, 0x00, 0x00,
   0x00, 0x00, 0x00, 0x00, 0x00, 0x00, 0x00, 0x00, 0x00, 0x00, 0x00, 0x40,
   0x00, 0x94, 0xaa, 0xbf, 0xff, 0xff, 0xff, 0xfe, 0xff, 0x07, 0x00, 0x00,
   0x00, 0x00, 0x00, 0x00, 0x00, 0x00, 0x00, 0x00, 0x00, 0x00, 0x00, 0x00,
   0x00, 0x52, 0x51, 0x75, 0xf5, 0xff, 0xff, 0xaf, 0xfe, 0xff, 0x03, 0x00,
   0x00, 0x00, 0x00, 0x00, 0x00, 0x00, 0x00, 0x00, 0x00, 0x00, 0x00, 0x00,
   0x00, 0x00, 0x00, 0x94, 0xca, 0xde, 0xff, 0xff, 0xff, 0xfe, 0xff, 0x03,
   0x00, 0x00, 0x00, 0x00, 0x00, 0x00, 0x00, 0x00, 0x00, 0x00, 0x00, 0x00,
   0x00, 0x00, 0x90, 0x54, 0x51, 0xb5, 0xf5, 0xff, 0xff, 0xaf, 0xfe, 0x7f,
   0x00, 0x00, 0x00, 0x00, 0x00, 0x00, 0x00, 0x00, 0x00, 0x00, 0x00, 0x00,
   0x00, 0x00, 0x00, 0x00, 0x00, 0x55, 0x6d, 0xef, 0xff, 0xff, 0x7f, 0xfd,
   0x1f, 0x00, 0x00, 0x00, 0x00, 0x00, 0x00, 0x24, 0x01, 0x00, 0x00, 0x00,
   0x00, 0x00, 0x00, 0x00, 0x40, 0xaa, 0x48, 0xd5, 0xfd, 0xff, 0xff, 0xd7,
   0xfe, 0x07, 0x00, 0x00, 0x00, 0x00, 0x00, 0x00, 0x20, 0x00, 0x00, 0x00,
   0x00, 0x00, 0x00, 0x00, 0x00, 0x08, 0x80, 0xaa, 0xba, 0xfb, 0xff, 0xff,
   0xbf, 0xfc, 0x01, 0x00, 0x00, 0x00, 0x00, 0x00, 0x40, 0x80, 0x00, 0x00,
   0x00, 0x00, 0x00, 0x00, 0x00, 0x00, 0x40, 0x55, 0x52, 0xd5, 0xfe, 0xff,
   0xff, 0x57, 0x7d, 0x00, 0x00, 0x00, 0x00, 0x00, 0x00, 0x00, 0x95, 0x00,
   0x00, 0x00, 0x00, 0x00, 0x00, 0x00, 0x00, 0x02, 0x80, 0x54, 0xdb, 0xff,
   0xdf, 0xff, 0x7f, 0x1d, 0x00, 0x00, 0x00, 0x00, 0x00, 0x00, 0x44, 0x40,
   0x00, 0x00, 0x00, 0x00, 0x00, 0x00, 0x00, 0x00, 0x48, 0x2a, 0x55, 0x6d,
   0xff, 0xbf, 0xff, 0x5f, 0x05, 0x00, 0x00, 0x00, 0x00, 0x00, 0x00, 0x08,
   0x94, 0x00, 0x00, 0x00, 0x00, 0x00, 0x00, 0x00, 0x00, 0x40, 0x48, 0x55,
   0xed, 0xff, 0xaf, 0xfe, 0x5f, 0x01, 0x00, 0x00, 0x00, 0x00, 0x00, 0x40,
   0xa0, 0x20, 0x00, 0x00, 0x00, 0x00, 0x00, 0x00, 0x00, 0x40, 0x12, 0x25,
   0xd5, 0xfd, 0xff, 0x5f, 0xfd, 0xbf, 0x04, 0x00, 0x00, 0x00, 0x00, 0x00,
   0x00, 0x82, 0xaa, 0x00, 0x00, 0x00, 0x00, 0x00, 0x00, 0x00, 0x00, 0x20,
   0xa8, 0x54, 0xf5, 0xff, 0x5f, 0xf5, 0x7f, 0x01, 0x00, 0x00, 0x00, 0x00,
   0x00, 0x40, 0x08, 0x52, 0x01, 0x00, 0x00, 0x00, 0x00, 0x00, 0x00, 0x40,
   0x84, 0xa2, 0xaa, 0xff, 0xff, 0x9f, 0xea, 0xbf, 0x04, 0x00, 0x00, 0x00,
   0x00, 0x00, 0x00, 0x51, 0x52, 0x01, 0x00, 0x00, 0x00, 0x00, 0x00, 0x00,
   0x80, 0x20, 0x94, 0xaa, 0xfa, 0xff, 0x9f, 0x54, 0xbf, 0x00, 0x00, 0x00,
   0x00, 0x00, 0x00, 0x50, 0xa4, 0xa4, 0x00, 0x00, 0x00, 0x00, 0x00, 0x00,
   0x00, 0x04, 0x4a, 0xa9, 0xda, 0xfe, 0xff, 0x5f, 0xaa, 0x7a, 0x01, 0x00,
   0x00, 0x00, 0x00, 0x00, 0x02, 0x89, 0xaa, 0x01, 0x00, 0x00, 0x00, 0x00,
   0x00, 0x00, 0x40, 0x40, 0x52, 0xb5, 0xea, 0xff, 0x8f, 0xa0, 0x6a, 0x01,
   0x00, 0x00, 0x00, 0x00, 0x00, 0x58, 0x52, 0x55, 0x01, 0x10, 0x00, 0x00,
   0x00, 0x00, 0x00, 0x08, 0x95, 0xaa, 0xea, 0xaa, 0xff, 0x1f, 0x4a, 0x5d,
   0x00, 0x00, 0x00, 0x00, 0x00, 0x00, 0x52, 0x2a, 0x55, 0x03, 0x04, 0x00,
   0x00, 0x00, 0x00, 0x00, 0x20, 0x20, 0x49, 0xad, 0x56, 0xff, 0x4f, 0x90,
   0xf2, 0x00, 0x00, 0x00, 0x00, 0x00, 0x00, 0xa8, 0xa4, 0xea, 0x82, 0x10,
   0x00, 0x00, 0x00, 0x00, 0x40, 0x82, 0x4a, 0xaa, 0xda, 0xaa, 0xfa, 0x0f,
   0x45, 0x4a, 0x01, 0x00, 0x00, 0x00, 0x00, 0x00, 0xaa, 0x55, 0xad, 0x37,
   0x02, 0x00, 0x00, 0x00, 0x00, 0x00, 0x10, 0x90, 0xaa, 0xb6, 0xaa, 0xfa,
   0x07, 0x88, 0x54, 0x00, 0x00, 0x00, 0x00, 0x00, 0x00, 0x6a, 0x55, 0x75,
   0x45, 0x00, 0x00, 0x00, 0x00, 0x00, 0x80, 0x44, 0xa5, 0x54, 0x55, 0x45,
   0xd2, 0x07, 0x20, 0x52, 0x01, 0x00, 0x00, 0x00, 0x00, 0x00, 0x52, 0x57,
   0xd7, 0x8f, 0x94, 0x00, 0x00, 0x00, 0x00, 0x08, 0x08, 0x48, 0xd5, 0xad,
   0x94, 0xa4, 0x02, 0x40, 0x44, 0x00, 0x00, 0x00, 0x00, 0x00, 0x00, 0xda,
   0xda, 0x7a, 0x2b, 0x02, 0x02, 0x00, 0x00, 0x00, 0x40, 0xa2, 0xaa, 0xaa,
   0x2a, 0x21, 0x02, 0x00, 0x00, 0x50, 0x00, 0x00, 0x00, 0x00, 0x00, 0x00,
   0xb0, 0xdb, 0x6e, 0x5f, 0x50, 0x00, 0x00, 0x00, 0x00, 0x00, 0x44, 0x92,
   0xaa, 0x55, 0x4a, 0x54, 0x01, 0x80, 0x84, 0x00, 0x00, 0x00, 0x00, 0x00,
   0x00, 0xdc, 0xbe, 0xfb, 0x95, 0x0a, 0x05, 0x00, 0x00, 0x00, 0x92, 0x28,
   0xa5, 0xda, 0x4a, 0x01, 0x01, 0x00, 0x00, 0x50, 0x00, 0x00, 0x00, 0x00,
   0x00, 0x00, 0xb0, 0x75, 0x57, 0x7f, 0x21, 0x08, 0x00, 0x00, 0x00, 0x00,
   0x41, 0x54, 0xd5, 0x12, 0x2a, 0x00, 0x00, 0x00, 0x00, 0x00, 0x00, 0x00,
   0x00, 0x00, 0x00, 0xdc, 0xde, 0xfd, 0x55, 0x55, 0x21, 0x00, 0x00, 0x80,
   0x24, 0xaa, 0xaa, 0xb6, 0xa5, 0x00, 0x02, 0x00, 0x00, 0x20, 0x00, 0x00,
   0x00, 0x00, 0x00, 0x00, 0xf4, 0xbb, 0x57, 0xdf, 0x4a, 0x0a, 0x00, 0x00,
   0x00, 0x40, 0x80, 0x54, 0xad, 0x08, 0x24, 0x00, 0x00, 0x00, 0x40, 0x00,
   0x00, 0x00, 0x00, 0x00, 0x00, 0x5c, 0xff, 0xfe, 0xba, 0x95, 0x52, 0x00,
   0x00, 0x10, 0x25, 0x55, 0x55, 0x75, 0xa5, 0x00, 0x00, 0x00, 0x00, 0x00,
   0x00, 0x00, 0x00, 0x00, 0x00, 0x00, 0xf0, 0xd6, 0xd5, 0x6b, 0x57, 0x55,
   0x00, 0x00, 0x20, 0x20, 0x29, 0x55, 0x57, 0x05, 0x44, 0x00, 0x00, 0x00,
   0x00, 0x00, 0x00, 0x00, 0x00, 0x00, 0x00, 0xd8, 0x7f, 0xbf, 0xde, 0x5a,
   0x25, 0x00, 0x00, 0x82, 0x44, 0x52, 0xd5, 0xba, 0x52, 0x00, 0x00, 0x00,
   0x00, 0x00, 0x00, 0x00, 0x00, 0x00, 0x00, 0x00, 0xf8, 0xea, 0xea, 0xba,
   0x77, 0xd5, 0x01, 0x00, 0x88, 0x88, 0xa4, 0xaa, 0x56, 0x85, 0x00, 0x00,
   0x00, 0x00, 0x00, 0x00, 0x00, 0x00, 0x00, 0x00, 0x00, 0xe8, 0x5f, 0xb7,
   0xd7, 0xda, 0x6a, 0x01, 0x00, 0x20, 0x52, 0x95, 0xda, 0xad, 0x2a, 0x00,
   0x00, 0x00, 0x00, 0x00, 0x00, 0x00, 0x00, 0x00, 0x00, 0x00, 0x50, 0xf5,
   0x76, 0xbd, 0xdb, 0xdb, 0x03, 0xa0, 0x44, 0x04, 0x54, 0x55, 0x5d, 0x09,
   0x01, 0x00, 0x00, 0x00, 0x00, 0x00, 0x00, 0x00, 0x00, 0x00, 0x00, 0xf0,
   0xaf, 0xad, 0xeb, 0x6e, 0x6d, 0x01, 0x00, 0x00, 0xa9, 0xa9, 0xba, 0xab,
   0x52, 0x00, 0x00, 0x00, 0x00, 0x00, 0x00, 0x00, 0x00, 0x00, 0x00, 0x00,
   0x50, 0x6d, 0xeb, 0xae, 0xdd, 0xea, 0x07, 0x84, 0x2a, 0x29, 0xaa, 0x6a,
   0xaf, 0x04, 0x02, 0x00, 0x00, 0x00, 0x00, 0x00, 0x00, 0x00, 0x00, 0x00,
   0x00, 0xe0, 0x5b, 0xad, 0x7d, 0x6b, 0xbf, 0x07, 0x10, 0x40, 0xd2, 0xaa,
   0xdd, 0x2a, 0x51, 0x00, 0x00, 0x00, 0x00, 0x00, 0x00, 0x00, 0x00, 0x00,
   0x00, 0x00, 0xa0, 0x6a, 0xab, 0xd5, 0xde, 0xea, 0x47, 0x42, 0x4a, 0x92,
   0x6a, 0xd5, 0x2f, 0x05, 0x00, 0x00, 0x00, 0x00, 0x00, 0x00, 0x00, 0x00,
   0x00, 0x00, 0x00, 0xe0, 0xd7, 0xaa, 0xbf, 0x75, 0xbd, 0x0f, 0x08, 0x91,
   0xa4, 0xaa, 0x7b, 0x45, 0x90, 0x00, 0x00, 0x00, 0x00, 0x00, 0x00, 0x00,
   0x00, 0x00, 0x00, 0x00, 0x40, 0xad, 0x5a, 0x6a, 0xd7, 0xf5, 0x2f, 0x21,
   0x92, 0xaa, 0xaa, 0xd6, 0x95, 0x02, 0x01, 0x00, 0x00, 0x00, 0x00, 0x00,
   0x00, 0x00, 0x00, 0x00, 0x00, 0xc0, 0x5a, 0x55, 0xb7, 0xbd, 0xde, 0x0f,
   0x94, 0x24, 0x55, 0xdd, 0x7b, 0x4b, 0x10, 0x00, 0x00, 0x00, 0x00, 0x00,
   0x00, 0x00, 0x00, 0x00, 0x00, 0x00, 0x80, 0x56, 0x55, 0x76, 0xeb, 0xbb,
   0xbf, 0x80, 0x54, 0x55, 0xb5, 0xee, 0x13, 0x22, 0x01, 0x00, 0x00, 0x00,
   0x00, 0x00, 0x00, 0x00, 0x00, 0x00, 0x00, 0x80, 0x55, 0x55, 0xad, 0x5d,
   0xfd, 0x1f, 0x2a, 0x49, 0xaa, 0xea, 0xbd, 0x45, 0x08, 0x00, 0x00, 0x00,
   0x00, 0x00, 0x00, 0x00, 0x00, 0x00, 0x00, 0x00, 0x00, 0xb5, 0xaa, 0xfa,
   0xb5, 0xf7, 0xbf, 0x48, 0xa9, 0xaa, 0x5b, 0xf7, 0x49, 0x41, 0x00, 0x00,
   0x00, 0x00, 0x00, 0x00, 0x00, 0x00, 0x00, 0x00, 0x00, 0x00, 0x55, 0x55,
   0xaa, 0xef, 0xfa, 0x1f, 0x25, 0x55, 0x55, 0xed, 0xfd, 0x22, 0x14, 0x01,
   0x00, 0x00, 0x00, 0x00, 0x00, 0x00, 0x00, 0x00, 0x00, 0x00, 0x00, 0x55,
   0x49, 0x6d, 0xad, 0xf7, 0x7f, 0x48, 0x52, 0x75, 0xbb, 0xdf, 0x4a, 0x01,
   0x00, 0x00, 0x00, 0x00, 0x00, 0x00, 0x00, 0x00, 0x00, 0x00, 0x00, 0x00,
   0xaa, 0x92, 0xb4, 0x7b, 0xff, 0x9f, 0x52, 0x55, 0xad, 0xed, 0xf6, 0x25,
   0x14, 0x00, 0x00, 0x00, 0x00, 0x00, 0x00, 0x00, 0x00, 0x00, 0x00, 0x00,
   0x00, 0x96, 0x2a, 0xb5, 0x6e, 0xed, 0xbf, 0x4a, 0x55, 0xb5, 0xdd, 0xff,
   0x49, 0xa1, 0x00, 0x00, 0x00, 0x00, 0x00, 0x00, 0x00, 0x00, 0x00, 0x00,
   0x00, 0x00, 0x28, 0xa5, 0xe8, 0xb5, 0xff, 0x3f, 0xaa, 0xaa, 0xed, 0xfb,
   0xff, 0x12, 0x04, 0x00, 0x00, 0x00, 0x00, 0x00, 0x00, 0x00, 0x00, 0x00,
   0x00, 0x00, 0x00, 0x54, 0x29, 0x55, 0xf7, 0xda, 0x7f, 0xa9, 0x6a, 0x5b,
   0xb7, 0xfe, 0xa0, 0x24, 0x00, 0x00, 0x00, 0x00, 0x00, 0x00, 0x00, 0x00,
   0x00, 0x00, 0x00, 0x00, 0x28, 0x42, 0xf2, 0xae, 0xfd, 0xbf, 0xaa, 0x5a,
   0xed, 0xfd, 0x7f, 0x00, 0x11, 0x00, 0x00, 0x00, 0x00, 0x00, 0x00, 0x00,
   0x00, 0x00, 0x00, 0x00, 0x00, 0xa8, 0x94, 0xc4, 0x7a, 0x6b, 0x7f, 0x55,
   0xd5, 0xbb, 0xff, 0x7f, 0x00, 0x22, 0x00, 0x00, 0x00, 0x00, 0x00, 0x00,
   0x00, 0x00, 0x00, 0x00, 0x00, 0x00, 0x50, 0x25, 0x69, 0x57, 0xf5, 0x7d,
   0xd5, 0xae, 0xee, 0xf6, 0x7f, 0x00, 0x08, 0x00, 0x00, 0x00, 0x00, 0x00,
   0x00, 0x00, 0x00, 0x00, 0x00, 0x00, 0x00, 0x40, 0x24, 0xc9, 0x56, 0xd5,
   0xbf, 0xaa, 0xfa, 0xdd, 0xff, 0x7f, 0x00, 0x00, 0x00, 0x00, 0x00, 0x00,
   0x00, 0x00, 0x00, 0x00, 0x00, 0x00, 0x00, 0x00, 0xa0, 0x12, 0x64, 0xdb,
   0xea, 0x7f, 0xd5, 0x56, 0xf7, 0xff, 0x7f, 0x00, 0x20, 0x00, 0x00, 0x00,
   0x00, 0x00, 0x00, 0x00, 0x00, 0x00, 0x00, 0x00, 0x00, 0x40, 0xa2, 0xc0,
   0xaa, 0xca, 0x7f, 0xdb, 0xf6, 0xfe, 0xfe, 0x7f, 0x00, 0x00, 0x00, 0x00,
   0x00, 0x00, 0x00, 0x00, 0x00, 0x00, 0x00, 0x00, 0x00, 0x00, 0x80, 0x08,
   0xaa, 0x55, 0xd5, 0x7f, 0xb5, 0xdb, 0xdb, 0xff, 0x7f, 0x00, 0x00, 0x00,
   0x00, 0x00, 0x00, 0x00, 0x00, 0x00, 0x00, 0x00, 0x00, 0x00, 0x00, 0x80,
   0xa2, 0x40, 0x55, 0x95, 0x7f, 0xb7, 0x7e, 0xff, 0xff, 0x7f, 0x00, 0x00,
   0x00, 0x00, 0x00, 0x00, 0x00, 0x00, 0x00, 0x00, 0x00, 0x00, 0x00, 0x00,
   0x00, 0x09, 0x92, 0xaa, 0x50, 0xfe, 0xda, 0xeb, 0xff, 0xff, 0x7f, 0x00,
   0x00, 0x00, 0x00, 0x00, 0x00, 0x00, 0x00, 0x00, 0x00, 0x00, 0x00, 0x00,
   0x00, 0x00, 0x22, 0x82, 0x2a, 0x45, 0xba, 0x7b, 0xff, 0xff, 0xff, 0xff,
   0x00, 0x00, 0x00, 0x00, 0x00, 0x00, 0x00, 0x00, 0x00, 0x00, 0x00, 0x00,
   0x00, 0x00, 0x00, 0x94, 0xa8, 0x4a, 0x29, 0x61, 0xef, 0x6d, 0xff, 0xff,
   0xff, 0x00, 0x00, 0x00, 0x00, 0x00, 0x00, 0x00, 0x00, 0x00, 0x00, 0x00,
   0x00, 0x00, 0x00, 0x00, 0x00, 0x80, 0x2a, 0x02, 0xc4, 0xbd, 0xff, 0xff,
   0xff, 0xff, 0x00, 0x00, 0x00, 0x00, 0x00, 0x00, 0x00, 0x00, 0x00, 0x00,
   0x00, 0x00, 0x00, 0x00, 0x00, 0x98, 0x80, 0x90, 0xa8, 0x68, 0xf7, 0xff,
   0xff, 0xff, 0xff, 0x01, 0x00, 0x00, 0x00, 0x00, 0x00, 0x00, 0x00, 0x00,
   0x00, 0x00, 0x00, 0x00, 0x00, 0x00, 0x30, 0x8a, 0x92, 0x02, 0xe1, 0xfe,
   0xfe, 0xff, 0xff, 0xff, 0x01, 0x00, 0x00, 0x00, 0x00, 0x00, 0x00, 0x00,
   0x00, 0x00, 0x00, 0x00, 0x00, 0x00, 0x00, 0x20, 0x00, 0x09, 0x08, 0xe8,
   0xf7, 0xff, 0xff, 0xff, 0xff, 0x05, 0x00, 0x00, 0x00, 0x00, 0x00, 0x00,
   0x00, 0x00, 0x00, 0x00, 0x00, 0x00, 0x00, 0x00, 0xc0, 0x20, 0xa2, 0x20,
   0xb0, 0xff, 0xff, 0xff, 0xff, 0xff, 0x03, 0x00, 0x00, 0x00, 0x00, 0x00,
   0x00, 0x00, 0x00, 0x00, 0x00, 0x00, 0x00, 0x00, 0x00, 0x80, 0x82, 0x08,
   0x02, 0xf8, 0xff, 0xff, 0xff, 0xff, 0xff, 0x0b, 0x00, 0x00, 0x00, 0x00,
   0x00, 0x00, 0x00, 0x00, 0x00, 0x00, 0x00, 0x00, 0x00, 0x00, 0x00, 0x07,
   0x41, 0x40, 0xf0, 0xff, 0xff, 0xff, 0xff, 0xff, 0x13, 0x00, 0x00, 0x00,
   0x00, 0x00, 0x00, 0x00, 0x00, 0x00, 0x00, 0x00, 0x00, 0x00, 0x00, 0x00,
   0x0a, 0x0a, 0x00, 0xfc, 0xff, 0xff, 0xff, 0xff, 0xff, 0x27, 0x00, 0x00,
   0x00, 0x00, 0x00, 0x00, 0x00, 0x00, 0x00, 0x00, 0x00, 0x00, 0x00, 0x00,
   0x00, 0x5c, 0x00, 0x02, 0xfe, 0xff, 0xff, 0xff, 0xff, 0xff, 0x56, 0x01,
   0x00, 0x00, 0x00, 0x00, 0x00, 0x00, 0x00, 0x00, 0x00, 0x00, 0x00, 0x00,
   0x00, 0x00, 0xa8, 0x08, 0x00, 0xff, 0xff, 0xff, 0xff, 0xff, 0xff, 0xaf,
   0x04, 0x00, 0x00, 0x00, 0x00, 0x00, 0x00, 0x00, 0x00, 0x00, 0x00, 0x00,
   0x00, 0x00, 0x00, 0xf0, 0x21, 0x80, 0xff, 0xff, 0xff, 0xff, 0xff, 0xbf,
   0x5a, 0x01, 0x00, 0x00, 0x00, 0x00, 0x00, 0x00, 0x00, 0x00, 0x00, 0x00,
   0x00, 0x00, 0x00, 0x00, 0xa0, 0x0b, 0xd0, 0xff, 0xff, 0xff, 0xff, 0xff,
   0xef, 0x6b, 0x15, 0x00, 0x00, 0x00, 0x00, 0x00, 0x00, 0x00, 0x00, 0x00,
   0x00, 0x00, 0x00, 0x00, 0x00, 0x00, 0xbf, 0xfa, 0xff, 0xff, 0xff, 0xff,
   0xff, 0xbf, 0x56, 0x55, 0x00, 0x00, 0x00, 0x00, 0x00, 0x00, 0x00, 0x00,
   0x00, 0x00, 0x00, 0x00, 0x00, 0x00, 0x00, 0xd5, 0xff, 0xff, 0xff, 0xff,
   0xff, 0xff, 0x75, 0x55, 0x15, 0x01, 0x00, 0x00, 0x00, 0x00, 0x00, 0x00,
   0x00, 0x00, 0x00, 0x00, 0x00, 0x00, 0x00, 0x00, 0xb4, 0xff, 0xff, 0xff,
   0xff, 0xff, 0xff, 0xd7, 0xab, 0x20, 0x00, 0x00, 0x00, 0x00, 0x00, 0x00,
   0x00, 0x00, 0x00, 0x00, 0x00, 0x00, 0x00, 0x00, 0x00, 0xe8, 0xff, 0xff,
   0xff, 0xff, 0xff, 0x5f, 0x5f, 0x4a, 0x02, 0x00, 0x00, 0x00, 0x00, 0x00,
   0x00, 0x00, 0x00, 0x00, 0x00, 0x00, 0x00, 0x00, 0x00, 0x00, 0xc0, 0xff,
   0xff, 0xff, 0xff, 0xff, 0xff, 0x6a, 0x95, 0x08, 0x00, 0x00, 0x00, 0x00,
   0x00, 0x00, 0x00, 0x00, 0x00, 0x00, 0x00, 0x00, 0x00, 0x00, 0x00, 0x80,
   0xff, 0xff, 0xff, 0xff, 0xff, 0xab, 0xad, 0x4a, 0x02, 0x00, 0x00, 0x00,
   0x00, 0x00, 0x00, 0x00, 0x00, 0x00, 0x00, 0x00, 0x00, 0x00, 0x00, 0x00,
   0x00, 0xfe, 0xff, 0xff, 0xff, 0x7f, 0x7f, 0xab, 0x12, 0x00, 0x00, 0x00,
   0x00, 0x00, 0x00, 0x00, 0x00, 0x00, 0x00, 0x00, 0x00, 0x00, 0x00, 0x00,
   0x00, 0x00, 0xf8, 0xff, 0xff, 0xff, 0xff, 0xd5, 0x2a, 0x49, 0x00, 0x00,
   0x00, 0x00, 0x00, 0x00, 0x00, 0x00, 0x00, 0x00, 0x00, 0x00, 0x00, 0x00,
   0x00, 0x00, 0x00, 0xe0, 0xff, 0xff, 0xff, 0xad, 0x56, 0x55, 0x02, 0x01,
   0x00, 0x00, 0x00, 0x00, 0x00, 0x00, 0x00, 0x00, 0x00, 0x00, 0x00, 0x00,
   0x00, 0x00, 0x00, 0x00, 0x80, 0xff, 0xff, 0x7f, 0x77, 0xab, 0x22, 0x08,
   0x00, 0x00, 0x00, 0x00, 0x00, 0x00, 0x00, 0x00, 0x00, 0x00, 0x00, 0x00,
   0x00, 0x00, 0x00, 0x00, 0x00, 0x00, 0xfc, 0x7f, 0xeb, 0xd6, 0xaa, 0x4a,
   0x01, 0x00, 0x00, 0x00, 0x00, 0x00, 0x00, 0x00, 0x00, 0x00, 0x00, 0x00,
   0x00, 0x00, 0x00, 0x00, 0x00, 0x00, 0x00, 0xa0, 0xea, 0x5d, 0xad, 0x4a,
   0x00, 0x00, 0x00, 0x00, 0x00, 0x00, 0x00, 0x00, 0x00, 0x00, 0x00, 0x00,
   0x00, 0x00, 0x00, 0x00, 0x00, 0x00, 0x00, 0x00, 0x80, 0x5b, 0xb5, 0x55,
   0x95, 0x2a, 0x00, 0x00, 0x00, 0x00, 0x00, 0x00, 0x00, 0x00, 0x00, 0x00,
   0x00, 0x00, 0x00, 0x00, 0x00, 0x00, 0x00, 0x00, 0x00, 0x00, 0x50, 0xab,
   0x2a, 0x42, 0x00, 0x00, 0x00, 0x00, 0x00, 0x00, 0x00, 0x00, 0x00, 0x00,
   0x00, 0x00, 0x00, 0x00, 0x00, 0x00, 0x00, 0x00, 0x00, 0x00, 0x00, 0x00,
   0x4a, 0xa2, 0x08, 0x00, 0x00, 0x00, 0x00, 0x00, 0x00, 0x00, 0x00, 0x00,
   0x00, 0x00, 0x00, 0x00, 0x00, 0x00, 0x00, 0x00, 0x00, 0x00, 0x00, 0x00,
   0x00, 0x80, 0x08, 0x00, 0x00, 0x00, 0x00, 0x00, 0x00, 0x00, 0x00, 0x00,
   0x00, 0x00, 0x00, 0x00, 0x00, 0x00, 0x00, 0x00, 0x00, 0x00, 0x00, 0x00,
   0x00, 0x00, 0x00, 0x00, 0x00, 0x00, 0x00, 0x00, 0x00, 0x00, 0x00, 0x00,
   0x00, 0x00, 0x00, 0x00, 0x00, 0x00, 0x00, 0x00, 0x00, 0x00, 0x00, 0x00,
   0x00, 0x00, 0x00, 0x00, 0x00, 0x00, 0x00, 0x00, 0x00, 0x00, 0x00, 0x00,
   0x00, 0x00, 0x00, 0x00, 0x00, 0x00, 0x00, 0x00, 0x00, 0x00, 0x00, 0x00,
   0x00, 0x00, 0x00, 0x00, 0x00, 0x00, 0x00, 0x00, 0x00, 0x00, 0x00, 0x00,
   0x00, 0x00, 0x00, 0x00, 0x00, 0x00, 0x00, 0x00, 0x00, 0x00, 0x00, 0x00,
   0x00, 0x00, 0x00, 0x00, 0x00, 0x00, 0x00, 0x00, 0x00, 0x00, 0x00, 0x00,
   0x00, 0x00, 0x00, 0x00, 0x00, 0x00, 0x00, 0x00, 0x00, 0x00, 0x00, 0x00,
   0x00, 0x00, 0x00, 0x00, 0x00, 0x00, 0x00, 0x00, 0x00, 0x00, 0x00, 0x00,
   0x00, 0x00, 0x00, 0x00, 0x00, 0x00, 0x00, 0x00, 0x00, 0x00, 0x00, 0x00,
   0x00, 0x00, 0x00, 0x00, 0x00, 0x00, 0x00, 0x00, 0x00, 0x00, 0x00, 0x00,
   0x00, 0x00, 0x00, 0x00, 0x00, 0x00, 0x00, 0x00, 0x00 };
